<?xml version="1.0" encoding="UTF-8" standalone="no"?>
<!DOCTYPE svg PUBLIC "-//W3C//DTD SVG 1.1//EN" "http://www.w3.org/Graphics/SVG/1.1/DTD/svg11.dtd">
<svg width="100%" height="100%" viewBox="0 0 619 154" version="1.1" xmlns="http://www.w3.org/2000/svg" xmlns:xlink="http://www.w3.org/1999/xlink" xml:space="preserve" xmlns:serif="http://www.serif.com/" style="fill-rule:evenodd;clip-rule:evenodd;stroke-linejoin:round;stroke-miterlimit:2;">
    <g transform="matrix(1,0,0,1,-196.833333,-398.020693)">
        <g transform="matrix(1,0,0,1,-67.166667,-101.979307)">
            <path d="M483,500L396,654L348,654L441,500L483,500Z" style="fill:rgb(74,130,114);"/>
        </g>
        <g transform="matrix(0.960784,0,0,1,-113.519608,-101.979307)">
            <path d="M485.908,500L396,654L365.694,654L456.041,500L485.908,500Z" style="fill:rgb(100,166,147);"/>
        </g>
        <g transform="matrix(1,0,0,1,-177.166667,-101.979307)">
            <path d="M479,500L396,654L374,654L458,500L479,500Z" style="fill:rgb(168,207,195);"/>
        </g>
        <g transform="matrix(1.264189,0,0,1.264189,-139.584071,-4.545616)">
            <g transform="matrix(105.469478,0,0,105.469478,757.970172,416.630523)">
            </g>
            <text x="443.988px" y="416.631px" style="font-family:'CanelaText-Medium', 'Canela Text';font-weight:500;font-size:105.469px;fill:rgb(22,35,58);">S<tspan x="505.582px 571.395px 601.453px 631.934px 671.485px 713.146px " y="416.631px 416.631px 416.631px 416.631px 416.631px 416.631px ">plittr</tspan></text>
        </g>
    </g>
</svg>
